<svg width="975" height="498" viewBox="0 0 975 498" fill="none" xmlns="http://www.w3.org/2000/svg">
<g clip-path="url(#clip0_454_5317)">
<path d="M312.973 331.077H268.503V409.126H160.682V331.077H0V251.35L167.814 5.875H268.503V249.672H312.973V331.077ZM160.682 249.672V202.675C160.682 193.863 161.102 182.114 161.521 167.007C162.36 151.901 162.78 144.348 163.199 143.509H160.262C153.969 157.776 146.837 170.784 138.866 183.372L94.3954 249.672H160.682Z" fill="#E97F18"/>
<path d="M632.659 208.129C632.659 279.464 620.493 331.916 596.999 365.066C573.085 398.215 536.586 415 487.081 415C438.834 415 402.754 397.796 378.002 362.968C353.668 328.14 341.502 276.527 341.502 208.129C341.502 136.375 353.249 83.9231 377.582 50.3539C401.495 16.7846 437.995 0 487.5 0C535.327 0 571.827 17.6239 596.16 52.452C620.493 87.2801 632.659 138.893 632.659 208.129ZM449.742 208.129C449.742 253.868 452.679 285.339 458.133 302.123C464.006 319.328 473.236 327.72 486.661 327.72C500.086 327.72 509.736 318.908 515.609 301.284C521.063 283.66 524 252.609 524 208.129C524 163.231 521.063 132.179 515.609 114.135C509.736 96.092 500.506 87.2801 487.081 87.2801C473.656 87.2801 464.006 96.092 458.552 113.296C452.679 130.5 449.742 161.972 449.742 208.129Z" fill="#E97F18"/>
<path d="M975 331.077H930.529V409.126H822.709V331.077H662.027V251.35L829.841 5.875H930.529V249.672H975V331.077ZM823.128 249.672V202.675C823.128 193.863 823.548 182.114 823.967 167.007C824.806 151.901 825.226 144.348 825.646 143.509H822.709C816.416 157.776 809.284 170.784 801.313 183.372L756.422 250.091H823.128V249.672Z" fill="#E97F18"/>
</g>
<g clip-path="url(#clip1_454_5317)">
<path d="M594.206 218.661C627.119 218.661 653.8 191.942 653.8 158.983C653.8 126.023 627.119 99.3047 594.206 99.3047C561.293 99.3047 534.612 126.023 534.612 158.983C534.612 191.942 561.293 218.661 594.206 218.661Z" fill="white"/>
<path d="M398.139 218.661C431.052 218.661 457.734 191.942 457.734 158.983C457.734 126.023 431.052 99.3047 398.139 99.3047C365.226 99.3047 338.545 126.023 338.545 158.983C338.545 191.942 365.226 218.661 398.139 218.661Z" fill="white"/>
<path d="M433.176 110.818C439.277 120.216 442.796 131.338 442.796 143.398C442.796 176.37 416.127 203.077 383.202 203.077C370.063 203.077 357.941 198.769 348.086 191.564C358.723 207.932 377.102 218.662 398.061 218.662C430.987 218.662 457.655 191.955 457.655 158.984C457.655 139.248 448.036 121.705 433.176 110.818Z" fill="#EFEFEF"/>
<path d="M629.243 110.818C635.343 120.216 638.862 131.338 638.862 143.398C638.862 176.37 612.194 203.077 579.268 203.077C566.129 203.077 554.007 198.769 544.153 191.564C554.789 207.932 573.168 218.662 594.128 218.662C627.053 218.662 653.722 191.955 653.722 158.984C653.722 139.248 644.024 121.705 629.243 110.818Z" fill="#EFEFEF"/>
<path d="M398.139 221.481C363.806 221.481 335.808 193.443 335.808 159.062C335.808 124.68 363.806 96.6426 398.139 96.6426C432.472 96.6426 460.471 124.68 460.471 159.062C460.471 193.443 432.472 221.481 398.139 221.481ZM398.139 102.046C366.778 102.046 341.282 127.578 341.282 158.983C341.282 190.389 366.778 215.92 398.139 215.92C429.5 215.92 454.996 190.389 454.996 158.983C454.996 127.656 429.5 102.046 398.139 102.046Z" fill="#9F9FA1"/>
<path d="M376.945 168.617C392.883 168.617 405.804 155.678 405.804 139.718C405.804 123.757 392.883 110.818 376.945 110.818C361.007 110.818 348.086 123.757 348.086 139.718C348.086 155.678 361.007 168.617 376.945 168.617Z" fill="#9F9FA1"/>
<path d="M369.906 146.296C376.428 146.296 381.715 141.002 381.715 134.47C381.715 127.939 376.428 122.645 369.906 122.645C363.384 122.645 358.097 127.939 358.097 134.47C358.097 141.002 363.384 146.296 369.906 146.296Z" fill="white"/>
<path d="M594.206 221.481C559.873 221.481 531.875 193.443 531.875 159.062C531.875 124.68 559.873 96.6426 594.206 96.6426C628.539 96.6426 656.538 124.68 656.538 159.062C656.538 193.443 628.539 221.481 594.206 221.481ZM594.206 102.046C562.845 102.046 537.349 127.578 537.349 158.983C537.349 190.389 562.845 215.92 594.206 215.92C625.567 215.92 651.063 190.389 651.063 158.983C651.063 127.656 625.567 102.046 594.206 102.046Z" fill="#9F9FA1"/>
<path d="M612.037 208.324C627.976 208.324 640.896 195.385 640.896 179.425C640.896 163.464 627.976 150.525 612.037 150.525C596.099 150.525 583.179 163.464 583.179 179.425C583.179 195.385 596.099 208.324 612.037 208.324Z" fill="#9F9FA1"/>
<path d="M604.999 186.003C611.521 186.003 616.808 180.709 616.808 174.178C616.808 167.646 611.521 162.352 604.999 162.352C598.477 162.352 593.189 167.646 593.189 174.178C593.189 180.709 598.477 186.003 604.999 186.003Z" fill="white"/>
<path d="M321.887 77.8458C331.975 89.4368 341.047 68.4477 372.252 61.869C398.295 56.3868 414.563 69.4658 419.099 59.5978C423.635 49.7298 402.832 35.9459 364.51 42.0547C335.964 46.5188 310.155 64.3752 321.887 77.8458Z" fill="#9F9FA1"/>
<path d="M669.677 79.7261C658.962 90.7689 651.063 69.3099 620.249 61.0082C594.519 54.1163 577.548 66.2555 573.559 56.1525C569.571 46.0495 591.078 33.4404 629.009 41.5854C657.32 47.6942 682.112 66.882 669.677 79.7261Z" fill="#9F9FA1"/>
<path d="M487.374 352.192C468.292 352.192 453.823 335.432 439.668 319.064C426.842 304.183 413.546 288.755 397.826 288.05C362.398 286.405 323.998 336.215 323.607 336.685C321.652 339.27 317.976 339.74 315.396 337.782C312.815 335.824 312.345 332.143 314.301 329.558C316.021 327.365 355.36 276.302 396.106 276.302C396.888 276.302 397.592 276.302 398.374 276.381C419.099 277.399 434.037 294.707 448.505 311.467C463.834 329.245 477.129 344.595 494.257 339.426C510.524 334.492 524.992 318.907 539.07 303.87C556.666 284.996 574.811 265.495 597.178 267.922C618.607 270.272 636.204 283.351 648.17 305.75C656.929 322.197 659.51 337.86 659.588 338.487C660.135 341.698 657.945 344.674 654.739 345.222C651.532 345.77 648.561 343.577 648.013 340.366C647.935 339.818 638.315 284.134 595.927 279.592C579.425 277.79 564.018 294.394 547.673 311.859C532.578 327.992 517.015 344.752 497.698 350.626C494.1 351.644 490.659 352.192 487.374 352.192Z" fill="#9F9FA1"/>
<path d="M298.424 318.908C293.966 330.029 295.843 343.343 302.648 353.133C304.603 355.953 306.871 358.459 309.608 360.573C310.468 361.278 311.641 361.435 312.424 360.573C313.127 359.868 313.284 358.38 312.424 357.754C303.742 350.94 299.285 339.819 300.145 328.855C300.38 325.8 301.162 322.824 302.257 319.927C302.648 318.908 301.787 317.734 300.849 317.42C299.754 317.185 298.815 317.89 298.424 318.908Z" fill="#9F9FA1"/>
<path d="M652.706 362.844C659.822 364.019 666.314 359.476 670.772 354.308C674.995 349.374 678.045 343.265 679.296 336.921C680 333.24 680.235 329.481 679.844 325.8C679.765 324.703 678.983 323.764 677.81 323.764C676.794 323.764 675.699 324.703 675.777 325.8C676.95 336.999 672.336 349.452 663.029 356.109C660.37 357.988 657.085 359.555 653.722 359.007C652.627 358.85 651.532 359.32 651.22 360.416C651.063 361.356 651.611 362.688 652.706 362.844Z" fill="#9F9FA1"/>
</g>
<rect x="296" y="430" width="455" height="5" rx="2.5" fill="#464646"/>
<rect x="296" y="430" width="332" height="5" rx="2.5" fill="url(#paint0_linear_454_5317)"/>
<circle cx="627.5" cy="432.5" r="5.5" fill="url(#paint1_linear_454_5317)"/>
<path d="M299.125 448.099C298.59 448.099 298.134 447.954 297.758 447.663C297.381 447.369 297.094 446.944 296.895 446.388C296.696 445.829 296.597 445.154 296.597 444.364C296.597 443.578 296.696 442.906 296.895 442.35C297.096 441.791 297.385 441.365 297.761 441.072C298.14 440.776 298.595 440.628 299.125 440.628C299.655 440.628 300.109 440.776 300.485 441.072C300.864 441.365 301.153 441.791 301.352 442.35C301.553 442.906 301.653 443.578 301.653 444.364C301.653 445.154 301.554 445.829 301.355 446.388C301.156 446.944 300.869 447.369 300.492 447.663C300.116 447.954 299.66 448.099 299.125 448.099ZM299.125 447.318C299.655 447.318 300.067 447.062 300.361 446.551C300.654 446.04 300.801 445.311 300.801 444.364C300.801 443.734 300.734 443.198 300.599 442.755C300.466 442.312 300.274 441.975 300.023 441.743C299.775 441.511 299.475 441.395 299.125 441.395C298.599 441.395 298.189 441.654 297.893 442.173C297.597 442.689 297.449 443.419 297.449 444.364C297.449 444.993 297.515 445.528 297.648 445.969C297.78 446.409 297.971 446.744 298.219 446.974C298.47 447.203 298.772 447.318 299.125 447.318ZM303.203 448V447.361L305.603 444.733C305.885 444.425 306.117 444.158 306.299 443.93C306.482 443.701 306.617 443.485 306.704 443.284C306.794 443.08 306.839 442.867 306.839 442.645C306.839 442.389 306.778 442.168 306.655 441.981C306.534 441.794 306.368 441.649 306.157 441.548C305.947 441.446 305.71 441.395 305.447 441.395C305.168 441.395 304.924 441.453 304.716 441.569C304.51 441.683 304.35 441.842 304.236 442.048C304.125 442.254 304.069 442.496 304.069 442.773H303.231C303.231 442.347 303.329 441.973 303.526 441.651C303.722 441.329 303.99 441.078 304.329 440.898C304.669 440.718 305.052 440.628 305.476 440.628C305.902 440.628 306.279 440.718 306.608 440.898C306.937 441.078 307.196 441.32 307.383 441.626C307.57 441.931 307.663 442.271 307.663 442.645C307.663 442.912 307.615 443.174 307.517 443.43C307.423 443.683 307.257 443.966 307.02 444.278C306.786 444.589 306.46 444.967 306.044 445.415L304.41 447.162V447.219H307.791V448H303.203ZM310.083 448.057C309.907 448.057 309.757 447.994 309.632 447.869C309.506 447.743 309.443 447.593 309.443 447.418C309.443 447.242 309.506 447.092 309.632 446.967C309.757 446.841 309.907 446.778 310.083 446.778C310.258 446.778 310.408 446.841 310.534 446.967C310.659 447.092 310.722 447.242 310.722 447.418C310.722 447.534 310.692 447.64 310.633 447.737C310.576 447.834 310.499 447.912 310.402 447.972C310.307 448.028 310.201 448.057 310.083 448.057ZM314.099 440.727V448H313.218V441.651H313.176L311.4 442.83V441.935L313.218 440.727H314.099ZM318.763 448.099C318.228 448.099 317.772 447.954 317.396 447.663C317.019 447.369 316.732 446.944 316.533 446.388C316.334 445.829 316.234 445.154 316.234 444.364C316.234 443.578 316.334 442.906 316.533 442.35C316.734 441.791 317.023 441.365 317.399 441.072C317.778 440.776 318.233 440.628 318.763 440.628C319.293 440.628 319.747 440.776 320.123 441.072C320.502 441.365 320.791 441.791 320.989 442.35C321.191 442.906 321.291 443.578 321.291 444.364C321.291 445.154 321.192 445.829 320.993 446.388C320.794 446.944 320.506 447.369 320.13 447.663C319.754 447.954 319.298 448.099 318.763 448.099ZM318.763 447.318C319.293 447.318 319.705 447.062 319.999 446.551C320.292 446.04 320.439 445.311 320.439 444.364C320.439 443.734 320.372 443.198 320.237 442.755C320.104 442.312 319.912 441.975 319.661 441.743C319.413 441.511 319.113 441.395 318.763 441.395C318.237 441.395 317.827 441.654 317.531 442.173C317.235 442.689 317.087 443.419 317.087 444.364C317.087 444.993 317.153 445.528 317.286 445.969C317.418 446.409 317.609 446.744 317.857 446.974C318.108 447.203 318.41 447.318 318.763 447.318Z" fill="#F1F1F1"/>
<path d="M728.125 448.099C727.59 448.099 727.134 447.954 726.758 447.663C726.381 447.369 726.094 446.944 725.895 446.388C725.696 445.829 725.597 445.154 725.597 444.364C725.597 443.578 725.696 442.906 725.895 442.35C726.096 441.791 726.385 441.365 726.761 441.072C727.14 440.776 727.595 440.628 728.125 440.628C728.655 440.628 729.109 440.776 729.485 441.072C729.864 441.365 730.153 441.791 730.352 442.35C730.553 442.906 730.653 443.578 730.653 444.364C730.653 445.154 730.554 445.829 730.355 446.388C730.156 446.944 729.869 447.369 729.492 447.663C729.116 447.954 728.66 448.099 728.125 448.099ZM728.125 447.318C728.655 447.318 729.067 447.062 729.361 446.551C729.654 446.04 729.801 445.311 729.801 444.364C729.801 443.734 729.734 443.198 729.599 442.755C729.466 442.312 729.274 441.975 729.023 441.743C728.775 441.511 728.475 441.395 728.125 441.395C727.599 441.395 727.189 441.654 726.893 442.173C726.597 442.689 726.449 443.419 726.449 444.364C726.449 444.993 726.515 445.528 726.648 445.969C726.78 446.409 726.971 446.744 727.219 446.974C727.47 447.203 727.772 447.318 728.125 447.318ZM734.76 440.727V448H733.879V441.651H733.836L732.061 442.83V441.935L733.879 440.727H734.76ZM737.247 448.057C737.071 448.057 736.921 447.994 736.796 447.869C736.67 447.743 736.607 447.593 736.607 447.418C736.607 447.242 736.67 447.092 736.796 446.967C736.921 446.841 737.071 446.778 737.247 446.778C737.422 446.778 737.572 446.841 737.698 446.967C737.823 447.092 737.886 447.242 737.886 447.418C737.886 447.534 737.856 447.64 737.797 447.737C737.74 447.834 737.663 447.912 737.566 447.972C737.471 448.028 737.365 448.057 737.247 448.057ZM741.263 440.727V448H740.382V441.651H740.34L738.564 442.83V441.935L740.382 440.727H741.263ZM745.927 448.099C745.392 448.099 744.936 447.954 744.56 447.663C744.183 447.369 743.896 446.944 743.697 446.388C743.498 445.829 743.399 445.154 743.399 444.364C743.399 443.578 743.498 442.906 743.697 442.35C743.898 441.791 744.187 441.365 744.563 441.072C744.942 440.776 745.397 440.628 745.927 440.628C746.457 440.628 746.911 440.776 747.287 441.072C747.666 441.365 747.955 441.791 748.154 442.35C748.355 442.906 748.455 443.578 748.455 444.364C748.455 445.154 748.356 445.829 748.157 446.388C747.958 446.944 747.671 447.369 747.294 447.663C746.918 447.954 746.462 448.099 745.927 448.099ZM745.927 447.318C746.457 447.318 746.869 447.062 747.163 446.551C747.456 446.04 747.603 445.311 747.603 444.364C747.603 443.734 747.536 443.198 747.401 442.755C747.268 442.312 747.076 441.975 746.825 441.743C746.577 441.511 746.277 441.395 745.927 441.395C745.401 441.395 744.991 441.654 744.695 442.173C744.399 442.689 744.251 443.419 744.251 444.364C744.251 444.993 744.317 445.528 744.45 445.969C744.582 446.409 744.773 446.744 745.021 446.974C745.272 447.203 745.574 447.318 745.927 447.318Z" fill="#F1F1F1"/>
<path d="M429.146 487.546C429.147 487.742 429.094 487.934 428.994 488.102C428.894 488.27 428.749 488.408 428.577 488.5C428.407 488.602 428.213 488.655 428.015 488.655C427.818 488.655 427.623 488.602 427.454 488.5L419.639 483.424C419.487 483.326 419.361 483.192 419.274 483.033C419.187 482.875 419.142 482.697 419.142 482.516C419.142 482.335 419.187 482.157 419.274 481.998C419.361 481.84 419.487 481.706 419.639 481.608L427.454 476.501C427.623 476.399 427.818 476.346 428.015 476.346C428.213 476.346 428.407 476.399 428.577 476.501C428.749 476.593 428.894 476.731 428.994 476.899C429.094 477.067 429.147 477.259 429.146 477.455V487.546Z" fill="white"/>
<path d="M419.147 487.546C419.148 487.742 419.095 487.934 418.995 488.102C418.895 488.27 418.75 488.408 418.578 488.5C418.408 488.602 418.214 488.655 418.016 488.655C417.819 488.655 417.624 488.602 417.455 488.5L409.64 483.424C409.488 483.326 409.362 483.192 409.275 483.033C409.188 482.875 409.143 482.697 409.143 482.516C409.143 482.335 409.188 482.157 409.275 481.998C409.362 481.84 409.488 481.706 409.64 481.608L417.455 476.501C417.624 476.399 417.819 476.346 418.016 476.346C418.214 476.346 418.408 476.399 418.578 476.501C418.746 476.591 418.887 476.724 418.987 476.886C419.087 477.048 419.142 477.234 419.147 477.424V487.546Z" fill="white"/>
<path d="M462.146 474.34V490.662" stroke="white" stroke-width="1.5" stroke-linecap="round" stroke-linejoin="round"/>
<path d="M475.12 488.352C475.121 488.578 475.061 488.8 474.946 488.995C474.831 489.189 474.666 489.349 474.468 489.457C474.277 489.567 474.06 489.625 473.84 489.625C473.619 489.625 473.403 489.567 473.212 489.457L464.185 483.556C464.008 483.442 463.863 483.286 463.763 483.102C463.663 482.918 463.61 482.711 463.61 482.501C463.61 482.292 463.663 482.085 463.763 481.901C463.863 481.717 464.008 481.561 464.185 481.447L473.237 475.596C473.428 475.486 473.644 475.428 473.865 475.428C474.085 475.428 474.302 475.486 474.493 475.596C474.691 475.704 474.856 475.864 474.971 476.059C475.086 476.253 475.146 476.475 475.146 476.701L475.12 488.352Z" fill="white" stroke="white" stroke-linecap="round" stroke-linejoin="round"/>
<g clip-path="url(#clip2_454_5317)">
<path d="M523.646 469.584C521.091 469.584 518.594 470.342 516.47 471.761C514.345 473.18 512.69 475.197 511.712 477.558C510.735 479.918 510.479 482.515 510.977 485.021C511.476 487.526 512.706 489.828 514.512 491.634C516.319 493.441 518.62 494.671 521.126 495.169C523.631 495.668 526.228 495.412 528.589 494.434C530.949 493.456 532.966 491.801 534.385 489.677C535.805 487.553 536.562 485.055 536.562 482.501C536.562 480.804 536.228 479.125 535.579 477.558C534.93 475.991 533.979 474.567 532.779 473.367C531.58 472.168 530.156 471.216 528.589 470.567C527.022 469.918 525.342 469.584 523.646 469.584V469.584ZM523.646 488.959C523.39 488.959 523.14 488.883 522.928 488.741C522.716 488.599 522.55 488.398 522.452 488.162C522.355 487.926 522.329 487.666 522.379 487.415C522.429 487.165 522.552 486.935 522.732 486.754C522.913 486.573 523.143 486.45 523.394 486.4C523.644 486.351 523.904 486.376 524.14 486.474C524.376 486.572 524.578 486.737 524.72 486.95C524.862 487.162 524.937 487.412 524.937 487.667C524.937 488.01 524.801 488.338 524.559 488.581C524.317 488.823 523.988 488.959 523.646 488.959ZM524.937 483.792C524.937 484.135 524.801 484.463 524.559 484.706C524.317 484.948 523.988 485.084 523.646 485.084C523.303 485.084 522.975 484.948 522.732 484.706C522.49 484.463 522.354 484.135 522.354 483.792V477.334C522.354 476.991 522.49 476.663 522.732 476.421C522.975 476.178 523.303 476.042 523.646 476.042C523.988 476.042 524.317 476.178 524.559 476.421C524.801 476.663 524.937 476.991 524.937 477.334V483.792Z" fill="#E97F18"/>
</g>
<path d="M585.146 474.34V490.662" stroke="white" stroke-width="1.5" stroke-linecap="round" stroke-linejoin="round"/>
<path d="M572.171 488.352C572.17 488.578 572.23 488.8 572.345 488.995C572.46 489.189 572.625 489.349 572.824 489.457C573.014 489.567 573.231 489.625 573.451 489.625C573.672 489.625 573.888 489.567 574.079 489.457L583.106 483.556C583.283 483.442 583.428 483.286 583.528 483.102C583.628 482.918 583.681 482.711 583.681 482.501C583.681 482.292 583.628 482.085 583.528 481.901C583.428 481.717 583.283 481.561 583.106 481.447L574.054 475.596C573.863 475.486 573.647 475.428 573.426 475.428C573.206 475.428 572.989 475.486 572.798 475.596C572.6 475.704 572.435 475.864 572.32 476.059C572.205 476.253 572.145 476.475 572.146 476.701L572.171 488.352Z" fill="white" stroke="white" stroke-linecap="round" stroke-linejoin="round"/>
<path d="M618.146 487.546C618.145 487.742 618.197 487.934 618.298 488.102C618.398 488.27 618.542 488.408 618.715 488.5C618.884 488.602 619.078 488.655 619.276 488.655C619.474 488.655 619.668 488.602 619.838 488.5L627.652 483.424C627.805 483.326 627.93 483.192 628.017 483.033C628.104 482.875 628.15 482.697 628.15 482.516C628.15 482.335 628.104 482.157 628.017 481.998C627.93 481.84 627.805 481.706 627.652 481.608L619.838 476.501C619.668 476.399 619.474 476.346 619.276 476.346C619.078 476.346 618.884 476.399 618.715 476.501C618.542 476.593 618.398 476.731 618.298 476.899C618.197 477.067 618.145 477.259 618.146 477.455V487.546Z" fill="white"/>
<path d="M628.145 487.546C628.144 487.742 628.196 487.934 628.297 488.102C628.397 488.27 628.541 488.408 628.714 488.5C628.883 488.602 629.077 488.655 629.275 488.655C629.473 488.655 629.667 488.602 629.837 488.5L637.651 483.424C637.804 483.326 637.929 483.192 638.016 483.033C638.103 482.875 638.149 482.697 638.149 482.516C638.149 482.335 638.103 482.157 638.016 481.998C637.929 481.84 637.804 481.706 637.651 481.608L629.837 476.501C629.667 476.399 629.473 476.346 629.275 476.346C629.077 476.346 628.883 476.399 628.714 476.501C628.546 476.591 628.404 476.724 628.304 476.886C628.204 477.048 628.149 477.234 628.145 477.424V487.546Z" fill="white"/>
<defs>
<linearGradient id="paint0_linear_454_5317" x1="253.195" y1="429.231" x2="280.708" y2="541.256" gradientUnits="userSpaceOnUse">
<stop stop-color="#FDAC5D"/>
<stop offset="1" stop-color="#E97F18"/>
</linearGradient>
<linearGradient id="paint1_linear_454_5317" x1="620.582" y1="425.308" x2="636.546" y2="426.287" gradientUnits="userSpaceOnUse">
<stop stop-color="#FDAC5D"/>
<stop offset="1" stop-color="#E97F18"/>
</linearGradient>
<clipPath id="clip0_454_5317">
<rect width="975" height="415" fill="white"/>
</clipPath>
<clipPath id="clip1_454_5317">
<rect width="384" height="324" fill="white" transform="translate(296 39)"/>
</clipPath>
<clipPath id="clip2_454_5317">
<rect width="31" height="31" fill="white" transform="translate(508.146 467)"/>
</clipPath>
</defs>
</svg>
