<svg width="785" height="334" viewBox="0 0 785 334" fill="none" xmlns="http://www.w3.org/2000/svg">
<g clip-path="url(#clip0_1995_3335)">
<path d="M251.858 266.426H216.071V329.234H129.305V266.426H0V202.268L135.044 4.72754H216.071V200.917H251.858V266.426ZM129.305 200.917V163.097C129.305 156.006 129.643 146.551 129.98 134.395C130.655 122.239 130.993 116.16 131.331 115.485H128.967C123.903 126.966 118.164 137.434 111.749 147.564L75.9624 200.917H129.305Z" fill="#E97F18"/>
<path d="M509.116 167.487C509.116 224.892 499.326 267.101 480.419 293.778C461.176 320.454 431.803 333.961 391.965 333.961C353.14 333.961 324.106 320.116 304.187 292.089C284.605 264.062 274.814 222.528 274.814 167.487C274.814 109.745 284.268 67.5351 303.849 40.5211C323.093 13.507 352.465 0 392.303 0C430.791 0 460.163 14.1824 479.744 42.2094C499.326 70.2365 509.116 111.771 509.116 167.487ZM361.918 167.487C361.918 204.294 364.281 229.619 368.67 243.126C373.397 256.971 380.824 263.725 391.628 263.725C402.431 263.725 410.196 256.633 414.923 242.451C419.312 228.269 421.675 203.281 421.675 167.487C421.675 131.356 419.312 106.368 414.923 91.8477C410.196 77.3277 402.769 70.2365 391.965 70.2365C381.162 70.2365 373.397 77.3277 369.008 91.1724C364.281 105.017 361.918 130.343 361.918 167.487Z" fill="#E97F18"/>
<path d="M784.608 266.426H748.821V329.234H662.055V266.426H532.75V202.268L667.794 4.72754H748.821V200.917H784.608V266.426ZM662.393 200.917V163.097C662.393 156.006 662.73 146.551 663.068 134.395C663.743 122.239 664.081 116.16 664.418 115.485H662.055C656.991 126.966 651.251 137.434 644.837 147.564L608.712 201.255H662.393V200.917Z" fill="#E97F18"/>
</g>
<g clip-path="url(#clip1_1995_3335)">
<path d="M478.172 175.961C504.658 175.961 526.129 154.46 526.129 127.937C526.129 101.414 504.658 79.9126 478.172 79.9126C451.686 79.9126 430.215 101.414 430.215 127.937C430.215 154.46 451.686 175.961 478.172 175.961Z" fill="white"/>
<path d="M320.393 175.961C346.879 175.961 368.35 154.46 368.35 127.937C368.35 101.414 346.879 79.9126 320.393 79.9126C293.907 79.9126 272.436 101.414 272.436 127.937C272.436 154.46 293.907 175.961 320.393 175.961Z" fill="white"/>
<path d="M348.587 89.1772C353.496 96.7401 356.328 105.69 356.328 115.395C356.328 141.928 334.867 163.42 308.371 163.42C297.798 163.42 288.043 159.953 280.113 154.155C288.673 167.327 303.462 175.962 320.329 175.962C346.825 175.962 368.286 154.47 368.286 127.937C368.286 112.055 360.545 97.9376 348.587 89.1772Z" fill="#EFEFEF"/>
<path d="M506.367 89.1772C511.276 96.7401 514.108 105.69 514.108 115.395C514.108 141.928 492.647 163.42 466.151 163.42C455.578 163.42 445.822 159.953 437.893 154.155C446.452 167.327 461.242 175.962 478.109 175.962C504.605 175.962 526.066 154.47 526.066 127.937C526.066 112.055 518.262 97.9376 506.367 89.1772Z" fill="#EFEFEF"/>
<path d="M320.392 178.23C292.763 178.23 270.232 155.667 270.232 128C270.232 100.332 292.763 77.7695 320.392 77.7695C348.021 77.7695 370.552 100.332 370.552 128C370.552 155.667 348.021 178.23 320.392 178.23ZM320.392 82.1182C295.155 82.1182 274.638 102.664 274.638 127.937C274.638 153.209 295.155 173.755 320.392 173.755C345.629 173.755 366.147 153.209 366.147 127.937C366.147 102.727 345.629 82.1182 320.392 82.1182Z" fill="#9F9FA1"/>
<path d="M303.337 135.689C316.162 135.689 326.56 125.277 326.56 112.433C326.56 99.5893 316.162 89.1772 303.337 89.1772C290.511 89.1772 280.113 99.5893 280.113 112.433C280.113 125.277 290.511 135.689 303.337 135.689Z" fill="#9F9FA1"/>
<path d="M297.671 117.727C302.92 117.727 307.175 113.466 307.175 108.21C307.175 102.955 302.92 98.6938 297.671 98.6938C292.423 98.6938 288.168 102.955 288.168 108.21C288.168 113.466 292.423 117.727 297.671 117.727Z" fill="white"/>
<path d="M478.172 178.23C450.543 178.23 428.012 155.667 428.012 128C428.012 100.332 450.543 77.7695 478.172 77.7695C505.8 77.7695 528.331 100.332 528.331 128C528.331 155.667 505.8 178.23 478.172 178.23ZM478.172 82.1182C452.934 82.1182 432.417 102.664 432.417 127.937C432.417 153.209 452.934 173.755 478.172 173.755C503.409 173.755 523.926 153.209 523.926 127.937C523.926 102.727 503.409 82.1182 478.172 82.1182Z" fill="#9F9FA1"/>
<path d="M492.52 167.642C505.346 167.642 515.743 157.23 515.743 144.386C515.743 131.542 505.346 121.13 492.52 121.13C479.694 121.13 469.297 131.542 469.297 144.386C469.297 157.23 479.694 167.642 492.52 167.642Z" fill="#9F9FA1"/>
<path d="M486.857 149.68C492.105 149.68 496.36 145.42 496.36 140.164C496.36 134.908 492.105 130.647 486.857 130.647C481.608 130.647 477.354 134.908 477.354 140.164C477.354 145.42 481.608 149.68 486.857 149.68Z" fill="white"/>
<path d="M259.028 62.6438C267.147 71.9714 274.448 55.0809 299.559 49.7869C320.517 45.3752 333.607 55.9003 337.258 47.9592C340.908 40.0182 324.167 28.9259 293.328 33.8418C270.357 37.4342 249.588 51.8037 259.028 62.6438Z" fill="#9F9FA1"/>
<path d="M538.904 64.1566C530.282 73.043 523.925 55.7744 499.129 49.0938C478.423 43.5477 464.766 53.3164 461.556 45.1863C458.346 37.0562 475.654 26.9093 506.177 33.4638C528.96 38.3797 548.911 53.8206 538.904 64.1566Z" fill="#9F9FA1"/>
<path d="M392.201 283.418C376.844 283.418 365.201 269.931 353.81 256.759C343.489 244.784 332.789 232.368 320.139 231.801C291.629 230.478 260.728 270.561 260.413 270.939C258.84 273.019 255.882 273.397 253.805 271.821C251.728 270.246 251.351 267.284 252.924 265.204C254.308 263.439 285.965 222.348 318.755 222.348C319.384 222.348 319.951 222.348 320.58 222.411C337.258 223.23 349.279 237.158 360.922 250.645C373.257 264.952 383.956 277.305 397.739 273.145C410.83 269.174 422.473 256.633 433.801 244.532C447.962 229.343 462.563 213.65 480.563 215.604C497.807 217.495 511.968 228.02 521.597 246.045C528.646 259.28 530.722 271.885 530.785 272.389C531.226 274.973 529.464 277.368 526.883 277.809C524.303 278.25 521.911 276.485 521.471 273.901C521.408 273.46 513.667 228.65 479.556 224.995C466.276 223.545 453.878 236.906 440.724 250.96C428.578 263.943 416.053 277.431 400.508 282.157C397.613 282.977 394.844 283.418 392.201 283.418Z" fill="#9F9FA1"/>
<path d="M240.149 256.633C236.562 265.582 238.072 276.296 243.547 284.174C245.121 286.443 246.946 288.46 249.149 290.162C249.841 290.729 250.785 290.855 251.414 290.162C251.981 289.595 252.107 288.397 251.414 287.893C244.429 282.41 240.841 273.46 241.534 264.637C241.722 262.179 242.352 259.784 243.233 257.452C243.547 256.633 242.855 255.688 242.1 255.435C241.219 255.246 240.464 255.814 240.149 256.633Z" fill="#9F9FA1"/>
<path d="M525.248 291.989C530.975 292.934 536.199 289.279 539.786 285.119C543.185 281.149 545.639 276.233 546.646 271.128C547.213 268.166 547.402 265.141 547.087 262.179C547.024 261.296 546.395 260.54 545.451 260.54C544.632 260.54 543.751 261.296 543.814 262.179C544.758 271.191 541.045 281.212 533.556 286.569C531.416 288.082 528.773 289.342 526.066 288.901C525.185 288.775 524.304 289.153 524.052 290.035C523.927 290.792 524.367 291.863 525.248 291.989Z" fill="#9F9FA1"/>
</g>
<defs>
<clipPath id="clip0_1995_3335">
<rect width="784.607" height="333.961" fill="white"/>
</clipPath>
<clipPath id="clip1_1995_3335">
<rect width="309.015" height="260.731" fill="white" transform="translate(238.199 31.3843)"/>
</clipPath>
</defs>
</svg>
