<svg width="270" height="83" viewBox="0 0 270 83" fill="none" xmlns="http://www.w3.org/2000/svg">
<path d="M266.882 12.3466L268.534 12.5566L269.687 14.0457L269.477 15.697L266.625 17.0122L262.494 17.8292L250.683 18.3407L248.245 19.0374L241.472 19.5184L231.6 20.6121L225.115 21.4654L216.979 22.1086L211.113 23.3761L204.213 24.8479L199.998 26.3254L192.727 28.0854L184.339 30.7101L173.801 34.4039L167.52 36.2899L163.059 37.0649L158.105 36.4349L155.919 35.1501L152.538 32.7065L151.097 30.8452L151.181 30.1847L149.2 29.9327L145.807 32.8573L141.712 36.0281L140.307 36.5206L137.335 36.1425L133.624 33.657L132.099 32.4562L130.129 26.836L129.348 25.0587L126.916 23.0714L122.833 20.8741L120.851 20.6221L120.221 25.576L120.209 30.9441L121.477 36.8105L121.633 40.8576L121.502 44.5324L120.746 50.477L118.921 54.2721L117.72 55.7974L115.979 58.932L112.623 64.2103L109.561 67.1769L106.913 69.5249L104.637 71.5847L101.701 73.5605L100.668 73.7647L99.8398 75.0018L96.9037 76.9775L93.6794 78.5811L87.0264 80.7553L82.2348 81.4883L73.4381 82.0476L71.0843 82.0838L64.8094 81.2857L58.6605 79.4969L54.9495 77.0113L54.1687 75.234L54.625 74.2853L57.6393 74.333L64.7369 76.5781L68.658 77.4124L72.2909 77.8744L76.6262 78.0902L84.8044 77.1167L90.0103 75.7652L93.8531 74.576L97.0355 73.3027L100.344 71.0387L102.163 69.9277L102.577 69.3091L103.238 69.3931L103.322 68.7326L105.141 67.6216L108.576 64.3668L111.307 61.3583L113.048 58.2237L115.12 55.1311L117.401 50.3873L118.283 43.4519L118.457 39.4468L110.363 39.7597L102.226 40.403L95.9878 41.9587L88.1819 42.644L82.6878 43.6232L82.262 49.6098L82.7907 53.3687L83.0732 56.425L84.671 62.3334L84.377 64.6452L83.6324 65.2217L81.6929 64.6394L77.9398 62.4841L75.754 61.1993L72.2472 59.7465L63.8705 57.0032L60.3217 55.8806L55.5358 53.9296L43.4843 51.0544L32.7958 48.0171L26.605 46.5585L21.8191 44.6074L14.4332 41.9901L10.8844 40.8675L10.3079 40.123L10.9321 37.8532L12.0069 37.3187L30.5433 39.3406L39.5443 39.8142L47.3502 39.1289L56.0629 39.2302L61.8033 38.9535L70.8463 39.0968L76.2984 38.4478L76.7967 37.1688L77.1022 29.4888L77.6902 24.8652L79.3835 24.745L80.3265 27.8853L80.567 31.2719L81.4623 37.4266L81.3783 38.0871L84.6388 38.8374L93.0213 38.8966L99.8364 38.0854L105.703 36.8179L116.193 36.1384L116.853 36.2224L116.733 34.5292L115.088 31.6351L113.977 29.8158L111.629 27.168L110.764 26.0512L110.848 25.3907L109.28 24.5201L106.974 21.5421L102.771 17.6514L100.051 15.2919L95.679 12.7223L92.8327 11.3535L90.2746 10.357L89.6561 9.9427L85.735 9.10841L82.8467 8.06988L76.9861 6.65332L70.7112 5.85527L58.4497 4.63143L50.4395 4.28388L37.3074 4.62733L29.8737 5.0243L22.6863 6.12379L19.9182 6.77854L14.0519 8.04604L10.9115 8.98905L5.24938 11.2893L2.72757 12.6466L1.56878 13.8416L0.620013 13.3854L0.914031 11.0735L2.77533 9.63227L6.74418 7.45224L13.1088 4.90572L20.3803 3.14571L24.1811 2.28671L30.3358 1.39147L38.0997 1.0365L51.2318 0.693052L56.2696 0.662576L74.1875 2.2702L84.0112 4.19079L87.8903 5.35534L92.3459 7.2644L97.7083 9.95999L100.843 11.701L103.563 14.0606L110.241 19.6083L111.724 21.1393L113.123 23.3309L115.513 25.6484L116.546 25.4442L117.506 20.5323L118.791 18.3465L120.611 17.2355L122.964 17.1993L128.038 19.5226L131.047 22.2544L132.488 24.1157L134.38 27.7123L134.831 29.4476L136.398 30.3182L137.509 32.1375L137.425 32.798L139.364 33.3802L142.547 32.107L144.738 30.7077L149.373 25.9276L150.406 25.7234L151.643 26.5519L153.331 29.1157L156.051 31.4753L157.576 32.6761L159.186 33.2163L163.479 33.7624L169.015 32.4529L176.701 30.0743L184.14 26.9933L191.826 24.6148L203.27 21.7075L209.551 19.8215L216.078 18.638L221.2 17.947L229.997 17.3878L241.603 15.8436L249.409 15.1584L254.201 14.4254L265.393 13.4996L266.882 12.3466ZM72.0775 42.6094L67.7002 42.7239L59.732 42.0461L48.2932 42.2693L39.1663 42.7865L32.7654 42.9792L31.0301 43.4297L32.1831 44.9187L45.1834 48.2501L49.0625 49.4147L56.9046 51.0832L61.114 52.2898L65.1973 54.4871L69.4067 55.6937L75.2673 57.1102L79.0624 58.9353L80.0951 58.731L80.5514 57.7823L78.9174 49.5201L78.0526 48.4033L77.5601 46.9983L76.9416 46.584L76.9894 43.5697L76.7011 43.1974L72.0775 42.6094Z" fill="#E97F18"/>
</svg>
