<svg width="1442" height="1022" viewBox="0 0 1442 1022" fill="none" xmlns="http://www.w3.org/2000/svg">
<g clip-path="url(#clip0_1691_3042)">
<rect width="1442" height="1022" fill="url(#paint0_linear_1691_3042)"/>
<path d="M494.747 1011.51C494.747 1011.51 508.033 1011.58 526.953 1011.78C529.104 1011.04 547.55 1017.84 555.312 1017.27C563.171 1016.68 575.369 1021.92 555.659 1021.92C550.823 1021.92 553.812 1017.51 553.904 1017.55C554.988 1018.04 557.563 1024.55 546.18 1019.39C540.105 1016.64 555.206 1015.89 555.206 1012.94C555.206 1011.29 517.729 1001.94 518.099 1007.58C518.151 1008.38 501.933 1011.17 524.417 1011.17C531.751 1011.17 513.028 1008.51 520.63 1005.77C525.11 1004.16 519.805 1008.92 531.879 1003.18C532.546 1002.87 549.383 1008.84 558.116 1008.63C571.784 1008.31 625.506 1004.82 630.693 1007.44C641.542 1012.94 558.278 1013.02 555.211 1012.95C555.151 1012.95 560.928 1008.72 560.928 1003.52C560.928 1001.52 562.622 990.296 560.226 989.703C556.562 988.795 535.328 985.237 535.304 986.96C534.931 1013.2 525.896 1002.8 534.662 987.575C537.808 987.184 514.078 983.075 537.791 983.742C542.525 983.875 542.998 980.008 555.052 985.164C560.867 987.652 595.644 986.352 603.403 984.429C607.322 983.457 617.166 983.407 615.278 979.751C604.275 980.514 605.419 982.265 588.57 982.265C576.895 982.265 555.023 982.667 545.714 979.769C545.61 979.737 545.813 984.006 545.835 980.788C545.858 977.217 588.731 974.958 589.393 979.522C590.092 984.357 589.071 979.101 593.223 979.101C607.348 979.101 601.343 960.551 588.66 970.662C587.172 971.848 586.47 981.258 580.235 974.212C577.5 971.121 586.571 970.876 586.173 972.595C584.228 981.014 608.044 975.314 597.697 970.31C595.94 969.461 581.733 971.52 594.276 968.182C602.684 965.945 596.193 971.803 607.264 969.743C610.953 969.058 631.131 968.36 630.553 968.797C625.923 972.32 630.085 974.871 612.912 974.668C589.523 974.391 603.822 969.325 606.562 969.394C624.797 969.854 616.657 966.127 621.657 966.019C628.384 965.872 637.86 964.197 631.837 968.725C631.75 968.787 616.433 970.124 619.671 966.651C620.012 966.286 610.442 963.164 622.56 961.22C624.772 960.865 634.381 960.971 633.913 964.559C633.908 964.598 635.065 959.139 628.557 959.267C611.92 959.592 628.408 962.339 618.618 956.45C610.937 951.831 614.123 958.214 617.123 949.367C617.305 948.833 616.038 945.567 616.04 945.552C615.461 945.65 622.376 947.525 616.833 952.779C612.8 956.601 610.517 953.293 598.9 952.532C595.985 952.341 584.65 952.845 585.822 951.633C594.414 942.761 592.114 937.892 592.171 937.939C593.846 939.347 594.749 954.713 582.692 951.724C566.653 947.749 513.608 958.115 497.482 963.677C496.252 964.101 484.637 968.351 484.404 968.547C484.697 964.067 495.047 955.734 498.406 951.462C503.748 944.67 568.902 940.016 582.692 946.82C589.802 950.326 588.021 947.334 590.565 944.746C591.79 943.5 519.832 921.604 515.294 918.761C514.973 918.56 514.339 918.222 513.89 918.128C519.197 917.342 521.884 896.441 522.344 892.389C523.146 885.324 527.502 875.658 514.62 870.586C510.708 869.046 503.511 875.145 508.181 881.894C511.072 886.077 510.683 894.761 517.87 898.645C517.981 898.706 507.57 876.634 506.196 877.253C499.442 880.288 504.684 878.609 494.641 881.05C486.105 883.125 486.201 892.626 491.421 897.168C492.656 898.241 526.795 923.753 511.904 909.283C507.63 905.132 495.257 892.644 485.977 895.131C475.977 897.808 468.446 912.542 474.253 916.438C476.998 918.28 532.301 936.214 503.739 925.034C500.509 923.769 472.881 916.109 469.66 918.126C461.186 923.432 457.596 929.201 459.449 936.71C461.098 943.377 474.354 940.704 486.068 941.911C487.365 942.045 514.366 942.624 501.256 939.699C492.317 937.705 468.388 940.177 458.782 942.177C452.069 948.123 450.722 954.118 455.331 960.954C457.797 964.611 497.684 953.462 497.746 953.359C493.224 952.825 460.166 959.542 456.675 962.907C451.214 968.167 452.596 983.988 477.505 969.219C478.546 968.603 483.545 966.611 485.017 966.211C475.105 966.211 451.473 978.66 464.306 979.538C479.615 980.587 484.354 963.397 494.736 956.579C499.249 953.611 503.601 935.917 509.589 930.997C511.763 929.211 518.218 913.648 518.104 912.854C522.461 903.86 514.091 905.162 521.464 893.398C527.529 883.721 521.48 877.919 525.215 889.86C535.701 923.382 584.569 932.866 624.465 949.163C639.629 955.357 627.733 960.123 637.453 961.803C644.265 962.98 638.037 983.387 642.047 984.799C646.056 986.21 615.055 993.111 628.768 981.212C631.222 979.083 636.104 989.082 638.536 970.435C638.981 967.029 632.846 962.568 636.4 966.619C638.271 968.75 638.865 983.369 632.89 980.579C629.35 978.926 620.268 982.141 627.092 986.55C627.199 986.618 603.428 986.632 593.695 988.331C591.438 988.726 554.971 989.736 560.989 989.651C573.954 989.469 578.913 989.332 592.171 988.439C609.14 987.297 611.17 987.042 627.745 987.771C641.685 988.383 633.089 989.836 632.262 1001.45C632.051 1004.42 626.447 1002.73 616.011 1002.73C587.172 1002.73 611.51 997.865 607.265 990.495C600.013 990.495 605.417 1003.75 593.404 999.916C589.91 998.8 587.277 1004.36 598.138 1003.56C598.217 1003.55 619.016 1008.22 613.704 1003.35C610.927 1000.8 595.284 1002.77 591.909 999.798C588.966 997.209 576.507 1002.58 576.287 996.561C576.102 991.537 602.671 995.048 603.407 992.836C604.843 988.507 610.036 993.24 610.077 993.24C625.857 993.24 619.961 1002.09 606.888 999.201C600.86 997.867 605.239 1004.47 593.609 1000.03C588.947 998.245 592.428 1002.31 590.771 1002.31C584.602 1002.31 564.691 1001.91 562.458 1004.42C554.143 1013.77 613.963 1001.67 629.474 1007.32C638.085 1010.46 643.369 1015.92 627.72 1015.6C612.939 1015.3 563.298 1018.13 565.466 1018.13C573.829 1018.13 617.76 1014.84 623.355 1015.85C625.499 1019.58 652.299 1020.34 638.232 1014.32C636.844 1013.73 646.651 1016.55 644.477 1018.77L714.757 1018.75" stroke="#E97F18" stroke-width="1.06138" stroke-linecap="round" stroke-linejoin="round"/>
<path d="M472.834 213.688L472.834 770.697" stroke="#E97F18" stroke-width="1.06138"/>
<path d="M494.062 1011.51C459.692 1011.51 428.786 1023.97 396.945 1014.07C369.418 1003.88 387.924 973.507 468.588 993.629C538.817 1011.15 503.614 976.701 568.889 950.831" stroke="#E97F18" stroke-width="1.06138"/>
<path d="M590.116 936.777C608.69 926.876 637.878 893.021 577.91 872.58C543.187 860.745 475.853 869.706 458.505 849.904C447.033 836.809 461.715 826.985 473.895 809.342C483.062 796.063 472.834 784.111 472.834 770.696" stroke="#E97F18" stroke-width="1.06138"/>
</g>
<defs>
<linearGradient id="paint0_linear_1691_3042" x1="721" y1="0" x2="721" y2="1022" gradientUnits="userSpaceOnUse">
<stop offset="0.206667" stop-color="#141416"/>
<stop offset="0.796667" stop-color="#271301"/>
<stop offset="1" stop-color="#311801"/>
</linearGradient>
<clipPath id="clip0_1691_3042">
<rect width="1442" height="1022" fill="white"/>
</clipPath>
</defs>
</svg>
