<svg width="312" height="1266" viewBox="0 0 312 1266" fill="none" xmlns="http://www.w3.org/2000/svg">
<path d="M104 1249C104 1249 116.5 1249.09 134.302 1249.42C136.325 1248.26 153.68 1258.9 160.984 1258C168.378 1257.09 179.855 1265.3 161.31 1265.3C156.761 1265.3 159.572 1258.38 159.659 1258.45C160.678 1259.22 163.102 1269.41 152.392 1261.33C146.676 1257.03 160.884 1255.85 160.884 1251.24C160.884 1248.65 125.623 1234.01 125.971 1242.84C126.02 1244.09 110.761 1248.45 131.916 1248.45C138.816 1248.45 121.2 1244.29 128.353 1240.01C132.568 1237.48 127.576 1244.95 138.936 1235.96C139.564 1235.46 155.405 1244.81 163.622 1244.49C176.482 1243.99 227.027 1238.52 231.907 1242.63C242.114 1251.23 163.774 1251.35 160.888 1251.24C160.832 1251.24 166.268 1244.63 166.268 1236.48C166.268 1233.36 167.861 1215.78 165.607 1214.85C162.16 1213.43 142.181 1207.86 142.159 1210.56C141.808 1251.64 133.307 1235.36 141.554 1211.52C144.514 1210.91 122.188 1204.48 144.499 1205.52C148.952 1205.73 149.398 1199.68 160.739 1207.75C166.21 1211.64 198.931 1209.61 206.231 1206.6C209.918 1205.08 219.18 1205 217.404 1199.27C207.051 1200.47 208.128 1203.21 192.275 1203.21C181.29 1203.21 160.712 1203.84 151.953 1199.3C151.855 1199.25 152.046 1205.94 152.067 1200.9C152.089 1195.31 192.427 1191.77 193.049 1198.92C193.707 1206.48 192.747 1198.26 196.653 1198.26C209.942 1198.26 204.292 1169.22 192.36 1185.04C190.959 1186.9 190.3 1201.63 184.433 1190.6C181.859 1185.76 190.394 1185.38 190.019 1188.07C188.19 1201.25 210.597 1192.33 200.862 1184.5C199.209 1183.16 185.843 1186.39 197.644 1181.16C205.555 1177.66 199.448 1186.83 209.864 1183.61C213.334 1182.53 232.319 1181.44 231.776 1182.13C227.419 1187.64 231.335 1191.64 215.177 1191.32C193.171 1190.88 206.625 1182.95 209.203 1183.06C226.36 1183.78 218.701 1177.95 223.406 1177.78C229.735 1177.55 238.65 1174.92 232.983 1182.01C232.902 1182.11 218.49 1184.2 221.537 1178.77C221.858 1178.2 212.854 1173.31 224.255 1170.26C226.336 1169.71 235.377 1169.87 234.937 1175.49C234.932 1175.55 236.02 1167.01 229.898 1167.21C214.244 1167.72 229.757 1172.02 220.546 1162.8C213.319 1155.57 216.317 1165.56 219.14 1151.71C219.311 1150.87 218.118 1145.76 218.121 1145.74C217.576 1145.89 224.082 1148.82 218.866 1157.05C215.073 1163.03 212.924 1157.85 201.994 1156.66C199.252 1156.36 188.586 1157.15 189.69 1155.26C197.774 1141.37 195.61 1133.74 195.663 1133.82C197.239 1136.02 198.089 1160.08 186.745 1155.4C171.654 1149.17 121.746 1165.4 106.573 1174.11C105.416 1174.77 94.488 1181.43 94.2683 1181.74C94.5443 1174.72 104.282 1161.68 107.443 1154.99C112.469 1144.35 173.77 1137.07 186.744 1147.72C193.434 1153.21 191.759 1148.53 194.152 1144.47C195.304 1142.52 127.602 1108.25 123.332 1103.79C123.03 1103.48 122.433 1102.95 122.011 1102.8C127.004 1101.57 129.533 1068.85 129.966 1062.51C130.72 1051.45 134.818 1036.32 122.698 1028.38C119.017 1025.97 112.246 1035.51 116.64 1046.08C119.36 1052.63 118.994 1066.22 125.755 1072.3C125.861 1072.4 116.065 1037.84 114.772 1038.81C108.418 1043.56 113.349 1040.94 103.901 1044.76C95.8688 1048.01 95.9595 1062.88 100.871 1069.99C102.032 1071.67 134.153 1111.61 120.142 1088.96C116.121 1082.46 104.48 1062.91 95.7488 1066.8C86.3402 1070.99 79.2541 1094.06 84.7177 1100.16C87.3005 1103.04 139.333 1131.12 112.461 1113.62C109.421 1111.63 83.4275 1099.64 80.3964 1102.8C72.4234 1111.11 69.0461 1120.14 70.7895 1131.89C72.341 1142.33 84.8133 1138.15 95.8345 1140.04C97.0545 1140.25 122.459 1141.15 110.125 1136.57C101.714 1133.45 79.2001 1137.32 70.1615 1140.45C63.8462 1149.76 62.5788 1159.15 66.9148 1169.85C69.2355 1175.57 106.763 1158.12 106.821 1157.96C102.567 1157.12 71.464 1167.64 68.1797 1172.91C63.041 1181.14 64.3418 1205.91 87.7774 1182.79C88.7573 1181.82 93.4608 1178.7 94.8457 1178.08C85.5196 1178.08 63.2852 1197.57 75.359 1198.94C89.7625 1200.58 94.2218 1173.67 103.99 1163C108.236 1158.35 112.33 1130.65 117.964 1122.95C120.01 1120.15 126.083 1095.79 125.976 1094.55C130.075 1080.47 122.2 1082.51 129.138 1064.09C134.844 1048.94 129.152 1039.86 132.667 1058.55C142.533 1111.03 188.51 1125.88 226.047 1151.39C240.315 1161.08 229.123 1168.55 238.267 1171.18C244.677 1173.02 238.817 1204.97 242.589 1207.18C246.362 1209.39 217.194 1220.19 230.096 1201.56C232.405 1198.23 236.998 1213.88 239.286 1184.69C239.705 1179.36 233.933 1172.37 237.277 1178.72C239.037 1182.05 239.596 1204.94 233.975 1200.57C230.644 1197.98 222.098 1203.02 228.519 1209.92C228.62 1210.03 206.255 1210.05 197.097 1212.71C194.974 1213.32 160.663 1214.91 166.325 1214.77C178.524 1214.49 183.189 1214.27 195.663 1212.88C211.628 1211.09 213.538 1210.69 229.133 1211.83C242.249 1212.79 234.162 1215.06 233.383 1233.25C233.185 1237.9 227.912 1235.25 218.093 1235.25C190.959 1235.25 213.858 1227.63 209.865 1216.09C203.041 1216.09 208.126 1236.85 196.823 1230.84C193.536 1229.1 191.058 1237.8 201.278 1236.54C201.352 1236.53 220.921 1243.85 215.923 1236.22C213.31 1232.22 198.592 1235.3 195.417 1230.66C192.647 1226.6 180.925 1235.01 180.719 1225.59C180.544 1217.73 205.542 1223.22 206.235 1219.76C207.586 1212.98 212.472 1220.39 212.51 1220.39C227.357 1220.39 221.809 1234.25 209.509 1229.72C203.838 1227.64 207.958 1237.97 197.016 1231.02C192.63 1228.23 195.905 1234.59 194.346 1234.59C188.541 1234.59 169.808 1233.96 167.707 1237.9C159.884 1252.54 216.166 1233.59 230.761 1242.43C238.862 1247.34 243.833 1255.9 229.11 1255.4C215.203 1254.93 168.498 1259.36 170.538 1259.36C178.405 1259.36 219.739 1254.2 225.003 1255.79C227.021 1261.62 252.236 1262.82 239.001 1253.4C237.694 1252.46 246.921 1256.88 244.876 1260.35L311 1260.33" stroke="#E97F18" stroke-linecap="round" stroke-linejoin="round"/>
<path d="M84 0L84 872" stroke="#E97F18"/>
<path d="M104 1249C71.6183 1249 42.4994 1268.5 12.4998 1253C-13.4357 1237.05 4 1189.5 79.9999 1221C146.168 1248.42 113 1194.5 174.5 1154" stroke="#E97F18"/>
<path d="M194.5 1132C212 1116.5 239.5 1063.5 183 1031.5C150.285 1012.97 86.8452 1027 70.4999 996C59.6909 975.5 73.5241 960.12 84.9998 932.5C93.637 911.711 83.9999 893 83.9999 872" stroke="#E97F18"/>
</svg>
