<svg width="184" height="170" viewBox="0 0 184 170" fill="none" xmlns="http://www.w3.org/2000/svg">
<path d="M133.166 0V3.04012C131.236 3.42617 129.306 4.68082 127.376 6.80408C125.446 8.87908 123.322 12.1605 120.958 16.6483L90.1705 77.5471H87.5647L51.9519 11.7262C49.9252 7.96221 48.2362 5.59768 46.8368 4.63256C45.4856 3.66745 44.231 3.18489 43.1211 3.18489V0C45.1478 0.0965117 47.2711 0.193026 49.4426 0.289538C51.6141 0.38605 53.9787 0.434307 56.5362 0.434307C59.8659 0.434307 63.4851 0.434304 67.249 0.386048C71.0612 0.337792 74.5839 0.193023 77.8653 0V3.18489C75.3077 3.18489 73.088 3.47442 71.1577 4.10175C69.2275 4.72907 67.9728 5.83896 67.3455 7.47965C66.7182 9.12035 67.2008 11.3884 68.6967 14.332L94.4653 63.6977L93.2589 64.6146L113.526 24.2244C116.373 18.6268 117.773 14.332 117.725 11.2919C117.676 8.25175 116.47 6.12849 114.154 4.97035C111.837 3.81221 108.508 3.13663 104.261 3.04012V0C107.205 0.0965117 110.197 0.193026 113.237 0.289538C116.277 0.38605 119.124 0.434307 121.778 0.434307C124.432 0.434307 126.604 0.38605 128.341 0.289538C129.982 0.193026 131.622 0.0965117 133.166 0ZM97.0229 61.5744V91.7343C97.0229 95.4018 97.3124 98.1041 97.9397 99.9378C98.567 101.772 99.7252 102.978 101.511 103.605C103.296 104.233 105.902 104.619 109.376 104.812V107.852C107.06 107.659 104.116 107.514 100.594 107.466C97.0711 107.417 93.5484 107.369 90.0258 107.369C86.0688 107.369 82.3531 107.417 78.8787 107.466C75.4042 107.514 72.6537 107.659 70.4822 107.852V104.812C73.9566 104.619 76.5624 104.184 78.2996 103.605C80.0851 102.978 81.2915 101.772 81.8705 99.9378C82.4979 98.1041 82.7874 95.3535 82.7874 91.7343V60.5128L90.9909 69.971L97.0229 61.5744Z" fill="#E97F18"/>
<path d="M92.6969 57.877C99.4045 57.877 104.906 58.8903 109.2 60.8688C113.495 62.8473 117.356 65.1636 120.685 67.8177C122.712 69.3618 124.256 69.5066 125.318 68.3485C126.379 67.1903 127.103 64.3915 127.538 60.0485H131.06C130.867 63.8124 130.722 68.3967 130.578 73.7531C130.481 79.1578 130.433 86.2514 130.433 95.0822H126.959C126.235 90.7392 125.607 87.2648 124.98 84.6589C124.353 82.0531 123.629 79.8334 122.76 77.9996C121.892 76.1659 120.734 74.3322 119.334 72.4985C116.197 68.3485 112.241 65.3084 107.463 63.4264C102.686 61.5444 97.6673 60.6275 92.4074 60.6275C87.437 60.6275 82.9492 61.8822 78.8957 64.3432C74.8905 66.8525 71.4161 70.4235 68.5207 75.056C65.6254 79.7368 63.4056 85.3828 61.8132 91.9456C60.269 98.5566 59.4486 105.988 59.4486 114.192C59.4486 122.733 60.3172 130.261 62.0545 136.823C63.7917 143.386 66.2045 148.887 69.2928 153.327C72.3812 157.767 76.0486 161.144 80.2469 163.461C84.4452 165.729 89.0295 166.887 93.855 166.887C98.4393 166.887 103.217 165.97 108.187 164.136C113.157 162.303 117.066 159.359 119.913 155.305C122.133 152.362 123.677 149.177 124.546 145.703C125.414 142.228 126.186 137.403 126.91 131.226H130.385C130.385 140.491 130.433 147.922 130.529 153.568C130.626 159.214 130.771 163.943 131.012 167.804H127.489C127.103 163.412 126.428 160.71 125.463 159.6C124.497 158.49 122.905 158.635 120.637 160.035C116.873 162.689 112.916 165.005 108.67 166.983C104.471 168.962 99.0667 169.927 92.4556 169.927C82.8045 169.927 74.3597 167.755 67.0731 163.364C59.8347 158.973 54.1887 152.7 50.1835 144.496C46.2748 136.341 44.248 126.448 44.248 114.867C44.248 103.479 46.323 93.538 50.473 84.9967C54.6231 76.4554 60.3655 69.7961 67.6039 65.0188C74.8905 60.2415 83.2388 57.877 92.6969 57.877Z" fill="#E97F18"/>
<path d="M76.0849 127.129V125.392H73.3343V123.655H75.6506V121.918H73.3343V120.181H75.9401V118.443H71.5488V127.178H76.0849V127.129Z" fill="#E97F18"/>
<path d="M81.1454 122.384L85.5367 127.306H86.0193V118.427H84.282V123.349L79.8908 118.234H79.4082V127.162H81.1454V122.384Z" fill="#E97F18"/>
<path d="M92.8814 127.129V120.181H95.0529V118.443H88.9727V120.181H91.1442V127.178H92.8814V127.129Z" fill="#E97F18"/>
<path d="M102.583 127.129V125.392H99.8323V123.655H102.149V121.918H99.8323V120.181H102.438V118.443H98.0469V127.178H102.583V127.129Z" fill="#E97F18"/>
<path d="M110.247 127.125H112.226L110.199 123.506C112.757 122.782 112.467 118.391 109.33 118.391H105.904V127.125H107.642V123.795H108.462L110.247 127.125ZM107.69 122.106V120.176H109.234C110.392 120.176 110.392 122.106 109.234 122.106H107.69Z" fill="#E97F18"/>
<path d="M118.303 127.129V120.181H120.475V118.443H114.395V120.181H116.566V127.178H118.303V127.129Z" fill="#E97F18"/>
<path d="M122.689 127.123H124.668L125.006 126.207H127.901L128.239 127.123H130.217L126.55 118.1H126.357L122.689 127.123ZM125.633 124.566L126.453 122.298L127.225 124.566H125.633Z" fill="#E97F18"/>
<path d="M134.919 127.125V118.391H133.182V127.125H134.919Z" fill="#E97F18"/>
<path d="M140.329 122.384L144.72 127.306H145.203V118.427H143.466V123.349L139.074 118.234H138.592V127.162H140.329V122.384Z" fill="#E97F18"/>
<path d="M152.87 122.09L149.444 118.277H148.865V127.156H150.651V122.234L152.87 124.599L155.09 122.234V127.108H156.876V118.277H156.345L152.87 122.09Z" fill="#E97F18"/>
<path d="M165.05 127.129V125.392H162.299V123.655H164.615V121.918H162.299V120.181H164.905V118.443H160.514V127.178H165.05V127.129Z" fill="#E97F18"/>
<path d="M170.114 122.384L174.505 127.306H174.988V118.427H173.251V123.349L168.86 118.234H168.377V127.162H170.114V122.384Z" fill="#E97F18"/>
<path d="M181.829 127.129V120.181H184V118.443H177.92V120.181H180.091V127.178H181.829V127.129Z" fill="#E97F18"/>
<path d="M3.37791 56.5027H5.30814V52.1597L8.68605 46.8516H6.32151L4.34302 50.1812L2.36454 46.8516H0L3.37791 52.1597V56.5027Z" fill="#E97F18"/>
<path d="M17.0091 56.6634C23.6201 56.6634 23.6201 46.7227 17.0091 46.7227C10.398 46.7227 10.398 56.6634 17.0091 56.6634ZM17.0091 54.6849C13.1486 54.6849 13.1486 48.7494 17.0091 48.7494C20.8695 48.7494 20.8695 54.6849 17.0091 54.6849Z" fill="#E97F18"/>
<path d="M33.3408 53.1795V46.9062H31.4106V53.1795C31.4106 55.2063 28.274 55.2063 28.274 53.1795V46.9062H26.3438V53.1795C26.392 57.7638 33.3408 57.7638 33.3408 53.1795Z" fill="#E97F18"/>
<path d="M40.0547 51.307L44.9285 56.7599H45.4111V46.9157H43.4808V52.3686L38.607 46.7227H38.0762V56.5668H40.0064V51.307H40.0547Z" fill="#E97F18"/>
<path d="M57.1407 55.92V51.6735H55.1622V54.5688C54.9692 54.6171 54.7761 54.6171 54.6314 54.6171C50.9157 54.6171 50.7227 48.8746 54.6314 48.7299C55.6448 48.6816 56.2721 48.9229 56.6581 49.0677L56.8994 47.1374C56.7064 47.0892 55.7895 46.7514 54.6314 46.7996C47.9238 47.0409 48.2616 56.5473 54.6314 56.5473C55.5965 56.5473 56.4168 56.3543 57.1407 55.92Z" fill="#E97F18"/>
<path d="M136.372 48.4251L136.614 46.4466C136.035 46.2053 135.407 46.0605 134.732 46.0605C128.217 46.0605 128.217 55.8082 134.732 55.8082C135.407 55.8082 136.276 55.6635 136.855 55.4222L136.614 53.4437C136.228 53.6367 135.6 53.878 134.732 53.878C130.919 53.878 130.919 47.9908 134.732 47.9908C135.504 47.9908 135.986 48.2321 136.372 48.4251Z" fill="#E97F18"/>
<path d="M145.834 55.8133V53.883H142.794V51.9528H145.303V50.0226H142.794V48.0923H145.689V46.1621H140.863V55.765H145.834V55.8133Z" fill="#E97F18"/>
<path d="M154.812 55.9003C161.423 55.9003 161.423 46.0078 154.812 46.0078C148.201 46.0078 148.201 55.9003 154.812 55.9003ZM154.812 53.9218C150.951 53.9218 150.951 47.9863 154.812 47.9863C158.672 47.9863 158.672 53.9218 154.812 53.9218Z" fill="#E97F18"/>
</svg>
